<svg width="24" height="24" viewBox="0 0 24 24" fill="none" xmlns="http://www.w3.org/2000/svg">
<path d="M8.73469 11.5153C8.41228 10.7131 8.2477 9.85616 8.25 8.99156C8.25 5.37468 11.1637 2.36906 14.7787 2.25375C15.7022 2.22296 16.6222 2.3821 17.4816 2.72131C18.3411 3.06052 19.1218 3.57257 19.7753 4.22575C20.4288 4.87892 20.9413 5.65932 21.281 6.51861C21.6206 7.37789 21.7803 8.29776 21.75 9.22125C21.6309 12.8362 18.6253 15.75 15.0084 15.75C14.1438 15.7523 13.2869 15.5877 12.4847 15.2653L11.25 16.5H9V18.75H6.75V21H3.75C3.55109 21 3.36032 20.921 3.21967 20.7803C3.07902 20.6397 3 20.4489 3 20.25V17.5603C3.00009 17.3617 3.07899 17.1712 3.21938 17.0306L8.73469 11.5153Z" stroke="white" stroke-width="1.5" stroke-linecap="round" stroke-linejoin="round"/>
<path d="M16.875 6.25C17.3582 6.25 17.75 6.64175 17.75 7.125C17.75 7.60825 17.3582 8 16.875 8C16.3918 8 16 7.60825 16 7.125C16 6.64175 16.3918 6.25 16.875 6.25Z" fill="white" stroke="white" stroke-width="0.125"/>
</svg>
